<svg xmlns="http://www.w3.org/2000/svg" viewBox="0 0 1000 1000"><path fill="#2d3080" d="M929 332c3-6 9-10 15-12 9-4 22 2 15 13-4 7-14 5-20 10-4 2-4 7-4 11 1 3 4 3 4 0v-1c0-3-4-3-4 0v1h4c0-7 3-9 10-11 4-1 8-2 11-5 5-4 7-13 3-18-11-13-31-2-38 10-1 2 3 4 4 2m8 31-1 1c0 1 0 0 0 0l3 2s1-1 0 0l1-1h-4v1c1 0 0 0 0 0v-1a4 4 0 0 1 0 1l2-2 2 2v-1l-1 1-3-2v1l2-2 1 1h1v2l-1-3-3 1v2l2 1c1 1 2-1 2-2v-1c0-1-2-2-3-1s-2 2-1 4l2 1 2-1v-2a3 3 0 0 0 0-1l-2-2-2 1-1 3 3 2 2-2c0-1 0 0 0 0v-3h-3m-34-11c2-3 6-6 10-7 3-1 10 0 8 5s-9 7-10 13c0 3 3 4 4 1 1-7 15-11 9-20-2-3-7-4-11-3-5 0-10 4-13 8-2 2 1 5 3 3m8 20v1l1-1 1-1 2 2v-1l-2 2h-1l2-3-3 1h4v-1l-3-1-1 3 1 1c0 1 3 1 3-1v1h-1v1c1-1 2-3 1-4l-1-1h-1a2 2 0 0 0-2 2v1a2 2 0 0 0 2 2l2-1v-2l-2-2-2 2m44-17c7-3 15-2 20 3 7 6 4 16-4 19-7 3-24 7-19 19 0 2 4 1 3-2-3-9 14-11 19-13 6-3 9-8 9-14 0-15-17-20-29-16-2 0-1 4 1 4m-4 49h1l1-3c-1 0-2 1-2 3l2-2 2 2v-2l-2 2c3 0 3-4 0-4l2 1v3a2 2 0 0 0 0-3 2 2 0 0 0-3 0h-1l1 3h1v-4a2 2 0 0 0-2 2v2a2 2 0 0 0 2 2l2-2-1 1c1 0 2-2 1-3a4 4 0 0 0-1-1s-1-1 0 0h-3v3"/><path fill="#82411b" d="M1073 739c2 17-22 24-31 9-9 12-13 4-14-2-20 14-26 5-30-6-16 10-24 6-24 6l-81-38s-26 12-39 6c-14-6-14-12-12-20-19-4-28-33-11-46-11-15-13-27-5-32s24-14 25-21 8-17 18-17 6-8 9-12 11-4 17-5 4-9 4-14 7-24 35-3c26-23 29-26 51-19s35 3 46 16c11 14 12 16 31 21 19 6 19 16 23 29 3 14 4 13 14 18s20 14 21 30 0 23-5 30-6 11-6 19 0 15-7 20-13 7-13 13-6 25-16 18"/><path fill="#b96128" d="M852 745c18 2 34 2 35-24 2-17 1-19 1-19-10-12-28-36 15-109 5 3 20-6 25-14 7-11 12-20 17-22 17 1 8 24 8 29-1 5 6 5 10 10s1 7 1 13 12 4 14 12 2 16 12 20 20-4 18 9c-1 10 2 16 8 21l-6 12c21 5-1 46-23 23a65 65 0 0 1-24 19c9 7 13 25 13 37l30 7s-8 43-44 50-72-7-95-35-15-39-15-39"/><path fill="#f8b262" d="M1008 769c13 4 53 20 57 56s-3 47 8 78c12 36 10 58 3 80s-21 31-45 30-46-15-46-15c1 12-1 20-1 20-15 6-98 23-155 6-58-17-71-65-69-132 2-83-6-156 89-146 13 32 30 60 73 73s70-8 86-50"/><path fill="#b96128" d="m989 797 32 51c1 2-23 32-41 32-6-27-18-66-18-66l27-17"/><path fill="#2d3080" d="M1020 851c-12-15-21-32-30-49-5-8-10-15-13-24-3-7-3-15-4-23 0-9-1-18-7-24-7-8-21-10-31-12-7-2-14-6-23-5-4 0-7 2-2 5l14 4c3 0 2 5-1 5-8-2-17-3-22-10-3-4 2-7 5-8 6-3 14-2 20 0 11 3 24 5 34 10 21 11 17 32 20 52 2 13 13 25 19 37 8 13 15 26 25 38 2 3-2 7-4 4m-66-109c-9-4-17-4-26 1-5 3-10 11-12 17 1 3 3 4 5 2l6-6 8-6c7-4 15-1 22 1 3 1 2 6-1 5-9-3-17-4-24 3-3 3-6 7-10 8-7 3-13-1-11-8 1-7 8-15 13-19 10-7 20-8 31-3 3 1 2 6-1 5M947 732c-8-3-19-6-26 0-3 4-13 18-8 23 3 2-1 6-4 3-6-7 1-20 6-27 9-11 21-8 33-4 3 1 2 6-1 5m-12 23c-1 13-1 27 8 38l13 11 7 13c5 9 7 20 10 30l10 31c1 3-4 5-5 2-2-10-6-20-10-30-3-12-6-24-11-35-6-11-18-16-23-27-5-10-5-22-4-33 1-3 6-3 5 0m74-75c34 13-12 56-25 27l4 1-16 13c-3 2-5-2-2-4l15-13c1-1 3-1 4 1 9 20 43-11 18-20-3-1-1-7 2-5m-110-73c-9 17-18 33-20 53-2 19 5 36 20 48 3 2-1 6-3 4a58 58 0 0 1-23-49c1-22 11-40 22-59 1-3 6 0 4 3M891 702c0 16 1 33-15 42-9 4-19 4-28 4-12 0-24-1-36 1-56 12-50 88-49 132 0 28-1 57 8 84 8 26 26 46 52 55 25 10 53 10 80 9s54-6 81-13c3-1 4 4 1 5-49 13-102 20-152 8-22-5-41-17-54-35-14-19-18-43-20-66-2-28-2-57-1-85 0-22 2-46 11-66 9-18 25-29 44-33 10-2 20-2 29-2 13 1 28 2 38-8 8-7 6-22 6-32 0-4 5-4 5 0M982 1018c3-23-10-42-22-59l-6-7h-8l-14-1-45-5c-20-4-31-13-37-32-6-20-6-46-21-62-2-3 1-6 4-4 14 15 16 39 21 59 2 10 6 21 15 27 4 4 10 5 16 6a484 484 0 0 0 54 7c5 0 14-1 18 1 5 3 9 11 12 14 12 17 21 36 18 57-1 3-6 2-5-1M845 892c-11-14-21-28-35-39-3-2 0-6 3-4 14 11 25 25 36 39 2 2-2 6-4 4m3 17c-7-10-16-19-25-27-3-2 1-6 3-4 10 9 19 18 27 29 2 2-3 5-5 2m215 18c0-7-4-13-8-19l-11-17-12-20c-3-6-5-15-12-20l4-1c-7 11-16 19-27 26-7 4-17 9-25 6-4-1-2-6 1-5 8 3 17-3 24-7 9-6 17-13 23-22 0-1 2-2 3-1 5 4 8 9 11 15l13 24 14 21c4 6 7 13 7 20 0 4-5 4-5 0M963 823c-51 12-102-26-114-75-1-4 4-5 5-2 11 47 59 83 107 72 4-1 5 4 2 5m47-53c-3 12-8 23-16 33-2 3-6-1-4-4 7-9 12-19 15-31 0-3 6-2 5 2m-65-215c6-1 9 4 11 9 2 4 3 6 2 10 0 6-4 12 2 16 5 4 8 4 8 11v5c-2 5 3 5 6 7 2 1 5 4 6 7 2 6 0 13 6 17 4 2 10 2 15 3 5 0 8 2 10 7l1 13c2 6 7 10 11 14 10 9 25 8 37 3 3-2 6 3 2 4-16 8-33 6-46-6-6-6-10-13-10-22-1-7-3-8-10-8-3-1-8-1-11-3-7-3-9-9-9-17-1-11-16-8-14-21 3-10-9-8-10-16-2-6 6-29-7-28-4 0-4-5 0-5m-7 13c-8 8-10 18-19 25-7 5-15 6-21-1h4c-10 11-25 18-38 7-3-2 1-6 4-4 10 9 22 2 30-7h4c11 15 27-18 32-24 3-2 6 2 4 4m5 31c-2-5-8-6-13-6-3 0-3-6 1-5 7 0 14 2 17 9 2 2-3 4-5 2m26 50h1l1-1s0-1 0 0c0-1 0 0 0 0 0-1 0 0 0 0h1c-1 0-1 0 0 0h-1v1h-1v1-1c0 1 0 0 0 0h-1c1 0 0 0 0 0-1 0 0 0 0 0-1 0 0 0 0 0 0-1 0 0 0 0v-1c1 0 0 1 0 0a4 4 0 0 0 1 0c-1 0-1 0 0 0v1s1 1 0 0c0 0 1 0 0 0-3 0-3-5 0-5 2 0 4 1 5 3l-2 5-5 2c-2-1-4-3-3-5 0-3 4-6 8-6 2 1 3 3 3 5s-2 5-4 6c-3 1-6-3-3-5m-46-33s1 0 0 0l1-1h1c0-1 0 0 0 0-1-1 0 0 0 0h1-1l-1 1c1-1 0 0 0 0s-1 1 0 0c0 0 0 1 0 0 0 1 0 0 0 0h-1v-1c0 1-1 0 0 0-1 0 0 0 0 0-1 1 0 0 0 0s-1 1 0 0v-1c0 1 0 1 0 0l1 2s1 0 0 0c0 0 1 0 0 0-3 0-3-5 0-5 2 0 4 1 4 3 1 2 0 4-1 5-2 1-3 2-5 1-2 0-4-2-3-4 0-4 4-7 7-6 3 0 4 3 4 5s-2 4-4 5c-3 2-6-2-3-4m29 14c-4 4-7 8-12 11h-6c-2 0-1 7 0 8 1 3-4 4-5 1s-3-13 2-14c4-1 7 1 10-2l7-8c2-3 6 1 4 4m-14 53-21-8c-3-2-1-7 2-5l21 8c3 2 1 6-2 5m-7-137c-6-6-17-14-25-7-7 6 0 16-6 22-3 3-7 4-12 5-10 0-7 8-13 13s-16-2-19 8c-3 8-2 12-9 18-7 5-14 7-19 14-6 9-2 21 5 28v4c-8 5-10 15-8 23 3 9 11 14 18 18 1 1 2 3 1 4-6 11 7 16 15 17 7 1 12-2 19-4 3-1 4 5 1 5-11 4-20 6-31 1-9-4-13-13-9-22l1 4c-10-6-19-14-21-26-2-9 3-20 11-24v4c-12-13-13-31 0-42l12-7c6-4 7-9 9-16 2-9 9-10 16-10 9 0 7-11 14-15l9-1c9-1 7-11 7-17 2-8 10-12 17-12 8 0 16 6 21 12 2 2-1 6-4 3m24 210c-3 3-4 9-2 13 1 3-4 4-5 1-2-5-1-14 3-18 3-2 7 1 4 4M989 761c21 3 40 11 56 24 16 12 23 29 24 49v36c1 13 4 26 9 38 7 22 8 43 3 65-3 16-11 30-26 38-17 10-36 2-49-12-14-15-20-36-25-55l-10-38c-2-8-7-16-8-25 0-3 6-3 6 0 0 7 5 14 6 21l8 31c5 19 10 38 21 55 12 18 33 29 53 16 15-9 19-28 21-44 4-23-3-42-9-63-7-19-5-38-5-58 1-19-6-36-20-49-16-14-36-21-56-24-4 0-2-5 1-5m-61-211 13-19c6-6 14-10 22-11 9-2 16 0 23 4 10 5 20 1 31 4 7 2 13 8 17 13 3 4 5 8 9 11 4 5 12 6 18 7 19 4 25 19 29 36 3 13 13 13 22 20 6 4 9 13 11 19 2 9 1 19 0 28-1 4-3 7-5 9-4 6-6 11-5 18 0 8-1 14-6 21l-9 5c-5 3-7 6-8 12-1 13-5 19-19 14l3-3c2 9-4 16-12 19-11 3-17 1-22-8h5c-5 9-19 9-19-2l4 2c-7 3-20 12-27 3l-5-7-7 2c-5 2-11 3-16 2-3-1-2-6 2-6 6 2 12 0 17-2 1-1 4-3 6-1 4 3 4 8 10 10 5 2 13-3 17-6 2 0 4 1 4 3 3 5 6 5 9-1 1-2 4-1 5 0 3 6 7 8 13 6 6-1 12-6 11-12 0-2 1-4 3-4 19 7 8-12 16-20 5-6 13-6 18-13 4-7 0-18 2-26 2-6 7-10 9-16 4-9 2-21-1-30-3-10-10-14-19-18-5-2-9-7-11-12l-5-21c-5-10-14-14-24-16-7-2-13-3-18-8-6-5-9-12-14-17-8-8-18-7-28-6-7 0-14-5-20-8-10-3-23 2-30 8-7 5-10 14-14 20-2 3-7 0-5-3"/></svg>