<svg xmlns="http://www.w3.org/2000/svg" width="1000" height="1000"><path fill="#fff" d="M0 0h1000v1000H0z"/><path d="M928.87 331.95c3.474-5.729 9.004-9.848 15.212-12.234 9.378-3.607 21.496 2.737 15.21 13.651-4.098 7.114-14.146 5.125-20.223 9.25-3.703 2.514-3.942 7.459-3.608 11.446.213 2.533 3.999 2.613 3.999 0v-1.068c0-2.578-3.999-2.578-3.999 0v1.068h3.999c-.603-7.213 2.854-9.27 9.37-10.696 4.356-.953 7.874-2.181 11.388-4.965 5.013-3.974 6.91-13.033 2.617-18.13-10.832-12.857-30.422-1.876-37.416 9.66-1.341 2.211 2.118 4.22 3.452 2.018h0m7.889 31.381c-.288.361-.539.665-.665 1.12-.153.551.192-.264.36-.364l3.007 1.728c0-.107.052-.76-.04-.121.056-.192.033-.161-.065.091l.188-.385-3.654-.477c.143.391.295.782.508 1.141.24.4.016.22-.077-.557l.04-.271a3.74 3.74 0 0 1-.116.401l1.929-1.468h-.356l1.928 1.468-.123-.389c-.041-.141-.081-.644-.039-.063-.009.213-.067.412-.172.597-.048.093-.579.523-.231.336l-3.007-1.728v1.066l2-2 .653.163.717.717c.395.548.155 1.092 0 1.418.465-.986.285-2.149-.717-2.737-.876-.513-2.271-.268-2.735.718-.283.599-.505 1.322-.283 1.984.38 1.128 1.222 1.633 2.365 1.736 1.086.097 2-.982 2-2v-1.066c0-1.557-1.688-2.435-3.009-1.726-1.594.856-1.79 2.449-1.274 4.036.276.852 1.008 1.468 1.928 1.468h.356c.913 0 1.66-.615 1.928-1.468.18-.569.323-1.234.135-1.825a3.37 3.37 0 0 0-.321-.733c-.033-.053-.249-.501-.169-.284-.245-.67-.681-1.2-1.397-1.396-.818-.225-1.862.124-2.257.918-.405.816-.627 1.516-.629 2.434-.004 1.506 1.705 2.505 3.009 1.726.493-.295.806-.613 1.14-1.074l.252-.596c.101-.401.181-.285-.276.288.678-.852.836-1.992 0-2.827-.705-.705-2.147-.853-2.827 0h0m-34.178-11.404c2.874-3.058 5.963-5.615 10.027-6.881 3.488-1.086 10.863-.051 8.423 5.169-2.447 5.235-8.986 6.568-10.056 12.926-.424 2.522 3.428 3.602 3.856 1.064 1.172-6.968 15.468-11.444 9.531-20.027-2.318-3.352-7.35-3.763-10.997-3.338-5.44.636-10 4.418-13.611 8.258-1.764 1.877 1.058 4.711 2.827 2.829h0m8.682 19.935c.017.308.06.612.113.916.107.625.077-.316.16-.501l1.726-.99h-.357l2 2v-1.068l-2 2h.357l-1.414-.585.359.355 1.413-3.414c-1.058.065-2.089.71-2.285 1.825l3.654-.477-.357-.71c-.488-.974-1.841-1.242-2.735-.718-.984.577-1.206 1.762-.717 2.735l.357.71c.745 1.485 3.356 1.216 3.654-.477l-.108.227-.717.717c-.236.109-.484.165-.745.168 1.688-.105 2.717-2.126 1.414-3.414-.239-.235-.472-.496-.762-.666-.432-.252-.889-.273-1.366-.273a2.02 2.02 0 0 0-2 2v1.068a2.02 2.02 0 0 0 2 2h.357c.643 0 1.452-.367 1.726-.99.239-.541.371-.946.432-1.537.027-.253-.051-.528-.112-.776-.021-.084-.067-.48-.047-.12-.06-1.088-.865-2-2-2-1.044 0-2.059.91-2 2h0m44.159-17.289c6.662-2.106 14.107-1.398 19.564 3.243 6.998 5.953 4.186 16.391-3.682 19.53-7.274 2.903-23.998 6.274-19.764 18.158.858 2.411 4.724 1.373 3.855-1.062-3.39-9.519 13.505-11.512 18.674-13.93 5.86-2.739 8.65-7.427 8.835-13.881.416-14.547-17.21-19.498-28.545-15.915-2.45.774-1.404 4.636 1.062 3.856h0m-4.434 48.943c.239.215.495.409.76.589a1.99 1.99 0 0 0-.048-.036c-.12-.171-.105-.135.043.109l1.196-2.937c-1.114.195-1.758 1.225-1.824 2.283l2-2h-.357l2 2v-1.068l-2 2h.712c2.581 0 2.578-3.971 0-3.999-.079.005-.159 0-.237-.013l1.414.587-.029-.032.313 2.423c-.248.291-.261.321-.047.093a2.02 2.02 0 0 0 0-2.827 2.02 2.02 0 0 0-2.827 0c-.213.213-.448.444-.58.714-.407.834-.344 1.732.312 2.423.449.475 1.052.624 1.681.631v-3.999h-.712a2.02 2.02 0 0 0-2 2v1.068a2.02 2.02 0 0 0 2 2h.357c1.141 0 1.932-.912 2-2a1.83 1.83 0 0 1-.168.745l-.718.717-.227.109c1.31-.229 1.777-1.894 1.194-2.937a3.97 3.97 0 0 0-.786-1.026l-.523-.401c-.081-.06-.423-.361-.071-.044-.809-.729-2.027-.801-2.827 0-.741.74-.81 2.098 0 2.827h0" opacity=".63" fill="#2d3080"/><path d="M846.841 353.433c2.134-6.758 13.515-2.843 8.892 3.915-2.846 3.912-9.604 2.134-8.892-2.849m-25.261 14.59c-.701-3.519 5.335-6.402 6.402-2.134 1.068 3.914-6.045 6.048-6.402 2.134" opacity=".63" fill="#fff"/><path d="M1072.59 738.91c2.091 16.714-21.936 24.549-30.292 8.877-8.881 12.538-13.581 4.701-14.102-1.563-20.371 14.1-26.117 5.218-29.772-5.748-16.191 9.922-24.549 5.748-24.549 5.748l-80.437-38.134s-26.115 11.494-39.695 5.75c-13.579-5.75-14.104-11.494-12.011-19.852-18.806-4.176-27.685-33.424-10.97-46.485-10.447-14.102-13.06-26.114-4.704-31.337s23.505-14.102 24.551-21.416 8.358-16.712 18.803-16.712 5.748-8.358 8.879-12.015c3.136-3.657 10.447-4.18 16.714-5.222s4.18-8.358 4.18-14.102 7.311-24.028 34.471-2.613c26.115-23.504 29.251-26.114 51.71-18.801s34.475 2.612 45.439 16.188c10.97 13.583 12.538 15.672 31.34 20.894 18.803 5.227 18.803 15.151 22.458 28.727 3.657 13.581 4.18 13.06 14.102 17.759s20.371 14.104 21.415 29.774-.521 22.981-5.222 30.814-5.746 10.968-5.746 18.282-.002 15.146-6.79 20.367-13.579 6.79-13.579 12.538-5.746 25.596-16.193 18.282" fill="#82411b"/><path d="M852.153 745.181c17.757 1.57 33.426 2.091 34.996-24.025 2.087-16.716 1.042-19.326 1.042-19.326-10.37-11.408-27.932-35.687 14.723-109.095 5.02 3.513 19.748-5.325 25.496-14.169 6.79-10.443 11.229-19.848 16.193-21.411 17.757 1.042 8.877 24.021 8.356 28.725-.524 4.695 5.746 5.22 9.924 9.922s1.042 7.311 1.565 13.057 11.492 4.18 13.059 12.017 2.091 16.188 12.538 20.369c10.447 4.176 19.845-4.182 18.278 8.358-1.324 10.584 1.212 16.5 7.835 21.672-3.096 4.878-6.53 11.233-6.53 11.233 21.416 5.483-1 46.525-23.09 23.523-14.255 15.647-23.132 18.52-23.132 18.52 8.877 7.835 12.534 25.854 12.534 37.343l29.771 6.79s-7.835 42.831-43.35 50.664-72.6-7.312-95.062-35.515-15.146-38.653-15.146-38.653" fill="#b96128"/><path d="M1008.272 769.381c12.536 3.655 52.818 19.718 56.996 55.237s-3.191 47.509 7.312 78.346c12.276 36.039 10.447 57.973 3.134 79.91s-20.892 31.338-44.395 29.774-46.488-14.627-46.488-14.627c1.045 11.491-.519 20.369-.519 20.369-15.674 5.748-98.196 22.46-155.127 5.748-57.977-17.238-71.558-65.289-68.944-132.143 2.087-83.05-6.271-155.65 88.27-145.724 13.057 31.86 30.293 60.062 73.121 73.119s70.058-8.616 86.641-50.01" fill="#f8b262"/><path d="M988.996 797.47c7.314 10.97 30.821 48.579 31.863 50.664s-22.983 31.863-40.74 31.863c-5.746-27.161-17.757-66.331-17.757-66.331l26.634-16.196" fill="#b96128"/><g fill="#2d3080"><path d="M1019.935 850.911c-11.901-14.723-20.697-32.154-30.113-48.517-4.559-7.925-9.636-15.53-13.118-24.011-2.977-7.251-2.927-15.632-3.383-23.326-.528-8.935-1.749-17.559-7.816-24.545-6.935-7.984-20.443-9.626-30.213-11.999-7.725-1.873-14.656-5.174-22.797-4.659-4.36.277-7.597 1.993-2.077 5.008 4.075 2.224 9.251 2.957 13.751 3.868 3.324.672 1.914 5.744-1.4 5.073-7.663-1.549-17.196-3.226-21.985-10.115-2.701-3.887 2.101-6.925 5.092-7.984 6.362-2.252 13.841-1.223 20.15.417 10.74 2.789 23.626 5.057 33.558 10.003 21.164 10.542 17.065 31.805 20.592 51.526 2.31 12.904 12.818 25.752 19.271 36.902 7.561 13.071 14.69 26.866 24.207 38.641 2.112 2.612-1.587 6.36-3.72 3.72h0M953.702 741.91c-8.775-3.576-17.014-4.238-25.252 1.038-5.527 3.54-10.668 11.092-12.599 17.34 1.456 3.041 3.262 3.448 5.422 1.217 2.073-1.265 3.915-3.445 5.62-5.174 2.601-2.642 4.962-4.653 8.203-6.456 6.707-3.725 15.328-1.368 21.965 1.065 3.157 1.158 1.793 6.242-1.4 5.073-8.495-3.113-16.588-4.218-23.63 2.599-3.145 3.045-6.197 6.962-10.354 8.696-6.811 2.841-12.218-1.187-10.901-8.419 1.237-6.783 7.925-15.084 13.237-19.127 9.5-7.235 20.285-7.328 31.088-2.924 3.099 1.263 1.745 6.355-1.4 5.073h0"/><path d="M946.652 731.725c-8.096-2.38-18.442-6.069-25.473.433-3.668 3.392-12.795 17.603-8.007 22.59 2.349 2.445-1.368 6.171-3.722 3.72-6.735-7.016.635-20.897 5.487-27.052 8.735-11.08 20.988-8.33 33.116-4.766 3.247.956 1.865 6.034-1.4 5.074h0m-11.157 23.323c-1.133 13.278-1.147 27.171 7.786 37.979 3.559 4.308 8.793 7.023 12.557 11.224 3.219 3.594 5.504 7.963 7.53 12.299 4.443 9.51 6.66 19.954 9.535 29.997 3.05 10.659 7.481 20.89 10.333 31.612.873 3.283-4.203 4.674-5.074 1.398-2.661-10.003-6.59-19.634-9.701-29.499-3.724-11.804-5.995-23.953-11.694-35.057-5.639-10.984-17.368-15.804-22.916-26.938-4.995-10.024-4.541-22.192-3.617-33.016.288-3.355 5.551-3.383 5.262 0h0m73.288-75.414c34.536 13.006-12.245 56.114-24.519 27.761l3.601.944c-5.683 3.773-9.979 9.149-15.67 12.927-2.836 1.882-5.467-2.677-2.656-4.545 5.683-3.771 9.979-9.147 15.67-12.927 1.091-.723 3.05-.323 3.599.945 8.798 20.325 42.877-10.88 18.575-20.031-3.143-1.184-1.782-6.272 1.4-5.074h0M899.076 607.09c-9.57 17.154-18.547 32.609-20.331 52.615-1.729 19.413 5.406 36.413 20.704 48.4 2.671 2.091-1.082 5.786-3.72 3.72-15.832-12.404-22.821-29.416-22.4-49.322.461-21.988 10.822-39.458 21.204-58.068 1.654-2.963 6.199-.31 4.543 2.656h0"/><path d="M890.838 701.621c.109 15.953 1.368 33.87-15.114 42.078-8.398 4.182-18.631 4.197-27.776 4.059-12.134-.184-23.76-.916-35.752 1.589-56.521 11.813-50.1 87.937-49.286 131.562.521 28.01-.645 57.238 7.889 84.257 8.228 26.052 26.303 45.737 51.906 55.316 24.873 9.306 53.62 9.863 79.837 8.81 27.519-1.104 54.593-6.342 81.07-13.689 3.276-.909 4.664 4.168 1.4 5.074-48.916 13.567-102.465 20.187-152.461 8.272-21.718-5.178-40.324-16.779-53.401-34.92-13.816-19.168-18.185-42.78-20.108-65.819-2.347-28.127-1.993-57.016-1.512-85.222.381-22.36 2.27-45.713 11.869-66.203 8.53-18.205 24.502-28.981 43.839-33.023 9.603-2.007 19.41-1.81 29.151-1.444 12.422.465 27.982 1.568 37.576-7.886 7.875-7.758 5.676-22.858 5.609-32.814-.021-3.394 5.241-3.392 5.262 0h0"/><path d="M981.753 1017.719c3.331-22.535-9.358-41.869-22.244-58.839l-5.176-6.628c.116.144-7.951.174-8.482.144l-13.676-.973c-15.125-1.217-30.183-3.205-45.143-5.732-19.871-3.354-31.137-12.51-37.006-31.939-6.037-19.98-5.8-46.116-21.134-61.893-2.366-2.433 1.351-6.157 3.72-3.72 14.469 14.886 16.542 39.076 20.978 58.417 2.389 10.417 6.092 21.013 14.974 27.631 4.811 3.585 10.691 4.773 16.447 5.83 9.968 1.829 20.01 3.24 30.071 4.439 7.956.951 15.94 1.64 23.932 2.233 4.741.353 14.349-1.065 18.421 1.323 4.408 2.58 8.382 10.512 11.299 14.479 12.043 16.374 21.183 35.725 18.094 56.628-.495 3.346-5.565 1.918-5.074-1.398h0"/><path d="M845.05 891.553c-10.831-13.483-21.125-27.64-34.98-38.239-2.657-2.031-.04-6.604 2.656-4.541 14.272 10.917 24.88 25.159 36.045 39.06 2.105 2.617-1.594 6.367-3.72 3.72h0m3.246 17.756c-7.163-10.233-16.13-19.169-25.703-27.148-2.612-2.175 1.133-5.878 3.72-3.72 9.938 8.281 19.094 17.596 26.526 28.215 1.95 2.785-2.613 5.413-4.543 2.654h0m214.881 17.989c-.116-7.056-4.432-13.387-8.016-19.201l-10.691-17.529c-4.175-6.427-8.395-12.766-12.015-19.531-3.475-6.492-5.732-15.209-11.978-19.683l3.599-.944c-6.846 10.496-16.403 18.703-26.929 25.363-7.014 4.439-17.249 8.996-25.533 6.013-3.168-1.142-1.801-6.227 1.4-5.074 7.825 2.819 17.184-2.764 23.67-6.869 8.923-5.646 17.072-13.234 22.848-22.088.728-1.114 2.392-1.808 3.599-.944 5.283 3.782 8.189 9.686 10.948 15.414 3.929 8.163 8.396 15.765 13.383 23.33 4.711 7.144 8.954 14.551 13.441 21.832 3.733 6.058 7.416 12.636 7.535 19.911.056 3.396-5.206 3.39-5.262 0h0M962.866 822.96c-50.926 11.78-101.713-25.715-114.287-75.182-.835-3.291 4.238-4.685 5.074-1.398 11.839 46.577 59.654 82.645 107.813 71.507 3.303-.765 4.704 4.31 1.4 5.073h0m46.968-53.24c-2.661 12.269-8.274 23.218-15.939 33.103-2.077 2.678-5.772-1.073-3.72-3.72 7.093-9.147 12.129-19.455 14.585-30.781.719-3.317 5.792-1.91 5.074 1.398h0m-65.201-214.916c6.028-.523 9.821 4.132 11.861 9.391 1.337 3.443 2.022 6.23 1.673 9.931-.512 5.422-4.173 12.271 1.636 16.196 4.736 3.203 7.967 3.848 8.549 10.212.144 1.589-.446 3.708-.803 5.229-1.121 4.76 3.057 5.569 5.988 7.02 2.766 1.37 5.63 4.106 6.506 7.155 1.631 5.685-.081 12.89 5.581 16.775 4.045 2.777 10.336 2.517 15.041 2.882 4.913.381 8.493 2.078 9.856 6.965 1.168 4.183.356 8.723 1.445 12.987 1.535 6.009 6.546 10.691 11.001 14.655 10.264 9.135 25.177 7.886 36.815 2.661 3.068-1.377 5.746 3.157 2.654 4.545-16.567 7.437-33.543 6.085-46.798-6.853-6.088-5.943-9.5-13.041-9.914-21.534-.354-7.302-2.335-7.923-9.242-8.5-3.854-.321-8.147-.674-11.676-2.377-7.242-3.492-8.489-9.393-8.982-16.935-.751-11.426-16.279-8.305-13.348-20.843 2.34-10.007-9.293-7.875-10.841-16.216-1.154-6.207 6.014-29.213-7-28.083-3.382.293-3.354-4.971 0-5.262h0m-6.526 13.374c-7.628 7.744-10.522 17.8-19.473 24.556-6.463 4.88-14.893 6.4-20.289-.53h3.72c-10.445 10.515-25.44 17.359-38.193 6.79-2.615-2.166 1.13-5.867 3.72-3.72 10.477 8.682 22.7 1.316 30.753-6.79.917-.923 2.84-1.131 3.72 0 11.205 14.392 26.68-18.299 32.321-24.026 2.385-2.421 6.104 1.301 3.72 3.72h0m5.054 30.394c-2.421-4.262-8.549-5.222-12.958-5.699-3.38-.365-2.74-5.589.627-5.223 6.67.72 13.677 2.71 17.182 8.888 1.673 2.949-3.196 4.95-4.851 2.034h0m26.238 50.63c.072-.039.598-.389.191-.072.214-.168.407-.36.6-.551-.033.033.537-.661.328-.368.002-.002.398-.791.242-.374.2-.531-.007-.042.042.16-.174-.7.253.393-.047-.151.184.332.519.47.945.509-.21-.019-.677.111.035-.03-.177.035-.349.1-.519.161.652-.239-.374.279-.567.419.496-.36-.365.4-.509.563.544-.619-.474 1-.103.102-.074.182-.161.73-.056-.082-.068.526-.165-.63-.042-.132l-.153-.372c.135.198.103.16-.096-.116.302.353-.374-.184-.493-.233.496.2-.642-.011-.109-.011-.681 0-.361.056-.091-.028-.665.207-.223.088-.033-.023.514-.3-.435.388.025-.007.135-.116.254-.246.374-.377.414-.449-.321.474.009-.026a3.77 3.77 0 0 0 .237-.438c-.312.647-.118.24-.072.042-.109.467-.161.766.361 1.324.075.081.954.467.47.317-.598-.184.584.016-.161-.004-3.385-.089-3.394-5.351 0-5.262 1.922.051 4.045.961 4.429 3.071.344 1.884-.484 3.631-1.796 4.953s-3.062 1.922-4.895 1.584c-1.877-.346-3.45-2.542-3.205-4.415.477-3.638 4.278-6.774 7.972-6.107 2.105.379 3.417 2.826 3.329 4.801-.103 2.342-1.987 4.622-3.985 5.716-2.977 1.629-5.632-2.913-2.656-4.545h0m-46.231-33.272c.072-.039.596-.388.191-.072.214-.167.407-.36.6-.551-.033.033.537-.661.328-.368.002-.002.4-.788.244-.372.2-.531-.009-.04.04.161-.172-.7.254.393-.047-.151.184.332.521.468.947.509-.21-.019-.677.107.035-.032-.177.035-.349.1-.517.163.651-.24-.375.277-.568.416.496-.358-.367.4-.51.563.544-.617-.474 1-.103.102-.075.182-.161.73-.054-.082-.07.528-.167-.63-.042-.132l-.154-.372c.135.198.103.161-.096-.116.303.353-.374-.184-.491-.232.496.198-.644-.012-.109-.012-.681 0-.363.058-.093-.026-.663.207-.221.088-.032-.023.514-.302-.435.388.025-.007.133-.116.254-.247.374-.377.412-.451-.321.474.009-.026.091-.14.165-.289.237-.44-.312.649-.119.24-.072.042-.109.468-.163.766.36 1.324.075.081.956.467.47.317-.598-.184.584.016-.16-.004-3.387-.089-3.396-5.351 0-5.262 1.922.051 4.043.961 4.429 3.071.344 1.884-.484 3.633-1.796 4.953-1.315 1.326-3.064 1.924-4.895 1.586-1.877-.347-3.45-2.542-3.205-4.417.477-3.636 4.28-6.772 7.972-6.106 2.105.381 3.417 2.827 3.329 4.801-.103 2.342-1.991 4.624-3.989 5.715-2.977 1.628-5.632-2.915-2.654-4.545h0m28.78 13.639c-3.534 4.094-6.586 8.812-11.503 11.382-2 1.045-4.476.523-6.556.077-2.231-.479-.398 6.558-.068 7.526 1.096 3.222-3.987 4.594-5.074 1.4-1.163-3.42-3.085-12.922 2.368-14.072 3.792-.798 6.537 1.265 9.91-1.714 2.738-2.419 4.825-5.565 7.204-8.319 2.221-2.573 5.927 1.166 3.72 3.72h0m-14.138 53.642c-7.058-2.696-14.278-5.163-21.086-8.455-3.048-1.473-.984-6.313 2.076-4.834 6.809 3.292 14.028 5.759 21.086 8.455 3.175 1.213 1.086 6.044-2.076 4.834h0m-6.611-136.943c-6.188-6.446-16.768-14.151-25.365-7.158-7.177 5.837-.205 15.665-5.86 21.902-3.152 3.475-7.091 4.171-11.62 4.494-9.908.707-6.986 8.624-13.195 13.59-6.069 4.852-15.77-2.135-19.187 7.989-2.575 7.628-2.377 12.157-9.201 17.477-6.513 5.073-13.872 7.114-18.543 14.462-5.883 9.247-1.905 20.702 5.022 27.953 1.182 1.235.942 3.241-.533 4.132-8.018 4.843-9.905 14.513-7.486 23.023 2.391 8.414 10.443 14.278 17.672 18.266 1.287.71 1.61 2.361.944 3.599-5.811 10.803 7.095 15.874 15.121 16.747 7 .763 12.271-1.551 18.733-3.375 3.271-.924 4.659 4.153 1.398 5.074-10.931 3.085-20.28 5.704-31.398.833-9.114-3.992-13.099-13.195-8.396-21.936l.944 3.601c-10.333-5.702-19.034-13.979-21.174-26.017-1.661-9.356 2.963-19.511 10.991-24.361l-.533 4.132c-11.92-12.474-12.413-30.374.781-42.108 3.192-2.838 7.547-4.625 11.201-6.788 6.476-3.838 7.879-9.286 9.387-16.116 1.822-8.247 9.208-9.736 16.491-9.864 9.066-.16 6.553-11.289 13.79-14.628 2.678-1.235 6.206-.879 9.068-1.084 8.6-.612 6.293-11.259 7.216-17.1 1.205-7.625 9.493-11.899 16.386-11.987 8.058-.102 15.821 6.055 21.071 11.526 2.349 2.447-1.366 6.172-3.72 3.72h0m23.877 209.469c-3.029 2.973-3.687 9.233-2.456 13.113 1.03 3.243-4.052 4.62-5.074 1.398-1.789-5.637-.526-13.978 3.81-18.231 2.422-2.377 6.146 1.342 3.72 3.72h0"/><path d="M989.212 761.258c20.634 2.82 39.519 10.354 55.86 23.34 15.579 12.381 22.991 29.848 24.389 49.375.854 11.896-.742 23.912-.268 35.852.535 13.534 4.259 25.731 8.67 38.392 7.518 21.572 8.424 42.466 3.526 64.703-3.476 15.782-11.254 30.472-25.905 38.272-17.642 9.391-36.708 1.802-49.314-11.913-13.802-15.018-20.495-36.008-25.6-55.276l-9.526-37.518c-2.149-8.217-7.181-16.691-7.623-25.172-.177-3.394 5.087-3.376 5.262 0 .365 6.997 4.838 13.858 6.609 20.62l8 31.34c4.711 19.122 10.073 38.013 20.834 54.716 11.815 18.342 32.591 28.72 52.799 16.312 14.725-9.04 19.129-28.478 21.499-44.297 3.371-22.513-3.07-41.554-9.908-62.635-6.141-18.926-4.376-38.535-4.162-58.056.209-19.031-6.432-36.399-20.771-49.11-15.535-13.771-35.44-21.094-55.77-23.874-3.348-.456-1.917-5.527 1.4-5.073h0m-60.94-210.902c4.445-6.274 7.725-13.223 12.767-19.073 5.49-6.369 14.248-9.836 22.262-11.471 8.277-1.687 15.362.442 22.691 4.066 10.373 5.132 20.292 1.428 30.988 4.431 6.92 1.942 12.669 7.39 16.875 12.978 2.838 3.773 5.502 7.621 8.809 11.01 4.787 4.908 12.432 5.637 18.791 6.969 18.815 3.943 24.972 18.82 28.495 35.896 2.659 12.892 13.064 13.202 21.886 19.815 5.885 4.411 8.831 12.711 10.71 19.511 2.435 8.812 1.896 19.008-.046 27.836-.719 3.269-2.766 6.235-4.58 8.963-3.799 5.711-5.539 10.699-5.285 17.7.291 8.026-.217 14.411-5.639 20.629-2.217 2.54-5.501 4.069-8.51 5.387-5.785 2.531-7.823 5.797-8.302 11.903-1.037 13.232-5.232 19.455-19.319 14.565l3.236-3.236c1.482 8.391-4.427 15.733-12.434 18.285-10.324 3.292-16.323 1.684-21.364-7.642h4.545c-4.718 9.059-18.361 9.486-19.006-2.11l3.959 2.271c-7.183 3.41-20.004 11.552-27.082 3.117-1.933-2.303-3.501-4.648-5.113-7.195-.277-.438-5.571 2.145-6.204 2.401-4.941 2.005-10.987 2.368-16.118 1.159-3.303-.777-1.901-5.851 1.4-5.073 5.909 1.391 11.84-.34 17.165-2.868 1.524-.724 4.303-2.245 6.027-.94 4.013 3.038 4.006 8.174 9.629 10.494 5.374 2.219 13.022-3.448 17.642-5.639 1.836-.872 3.841.181 3.957 2.271 2.449 5.169 5.516 4.988 9.2-.544.903-1.736 3.629-1.693 4.545 0 2.915 5.395 7.212 7.668 13.483 5.841 5.188-1.514 11.88-5.725 10.696-12.432-.319-1.812 1.172-3.954 3.238-3.236 19.071 6.623 7.937-12.134 15.46-20.476 5.215-5.783 13.346-6.227 17.842-13.043 4.631-7.025.612-17.687 2.871-25.603 1.714-6.007 6.944-10.403 8.987-16.349 3.105-9.03 1.501-21.208-1.494-30.044-3.368-9.931-10.187-13.52-19.036-17.638-4.895-2.28-9.044-7.032-10.717-12.155-2.25-6.895-2.719-14.116-5.601-20.839-4.297-10.035-13.239-14.381-23.353-16.5-6.963-1.459-12.827-3.054-18.282-7.728-5.616-4.811-9.045-11.962-14.309-17.166-7.751-7.667-17.338-6.532-27.217-6.104-7.444.321-14.037-4.753-20.694-7.248-9.998-3.747-22.423 1.414-30.157 7.725-6.134 5.006-9.252 13.436-13.751 19.785-1.945 2.745-6.511.121-4.545-2.654h0"/></g></svg>